# Blender 4.5.4 LTS
# www.blender.org
mtllib Craneo_3.mtl
o Human_Skull_High
v 0.851906 0.195276 2.495000
v 0.462590 0.264693 2.704509
v 0.184326 0.071713 2.694610
v 0.208176 -0.200312 2.690297
v 0.337760 -0.358710 2.638115
v 0.537566 -0.414826 2.577237
v 0.893924 -0.299309 2.332944
v 0.825397 -0.280273 2.360296
v 0.511535 -0.351289 2.548675
v 0.252429 -0.198465 2.610981
v 0.215068 0.057259 2.631426
v 0.459867 0.216700 2.646274
v 0.793737 0.155675 2.494138
v 0.915934 -0.031574 2.301141
v 0.854252 -0.047931 2.320830
v 0.109446 -0.037283 2.760601
v 0.075731 0.102467 2.763896
v 0.240921 0.264207 2.785257
v 0.457811 0.351564 2.707421
v 0.692318 0.335736 2.580009
v 0.882965 0.275331 2.402437
v 0.934046 0.148788 2.301871
v 0.982074 -0.127366 2.156489
v 1.025999 -0.359519 2.157397
v 1.051939 -0.582339 2.064399
v 0.882105 -0.685737 2.312611
v 0.710575 -0.699340 2.380508
v 0.120994 -0.172226 2.818019
v 0.223047 -0.363037 2.725760
v 0.283932 -0.534126 2.663843
v 0.305121 -0.705863 2.643760
v 0.495953 -0.888178 2.401188
v 0.059506 -0.108583 2.886733
v 0.259713 -0.968022 2.746908
v 0.900113 -0.494063 2.339009
v 0.115748 -0.229495 2.860062
v 0.218867 -0.527481 2.707299
v 0.169532 -0.708210 2.754171
v 0.855551 0.462163 2.402279
v 0.746455 0.701257 2.425780
v 0.812931 1.088996 2.062955
v 0.499695 0.511409 2.641501
v 0.154564 0.541972 2.751377
v 0.367015 0.759169 2.616940
v 0.419922 1.231548 2.250931
v 0.644039 -0.356547 2.433000
v 0.503875 -0.336173 2.463516
v 0.363712 -0.275461 2.497136
v 0.728317 -0.327832 2.375622
v 1.100354 -0.514782 1.866655
v 1.087607 -0.467761 1.586380
v 1.019859 -0.466716 1.297283
v 1.000683 -0.455431 1.176597
v 1.067487 -0.382951 1.308238
v 1.081872 -0.403127 1.458331
v 1.090724 -0.418395 2.019816
v 0.989237 -0.496858 1.315617
v 0.999048 -0.495703 1.446099
v 1.040768 -0.518359 1.705432
v 0.893606 0.276998 2.323905
v 0.922436 0.626899 2.249111
v 0.995165 0.948693 1.911442
v 0.907513 0.045449 2.161252
v 0.963580 -0.312947 2.099015
v 1.076166 -0.377319 1.894850
v 1.084765 -0.371115 1.608305
v 1.074120 -0.322238 1.323098
v 1.081602 -0.292120 1.206427
v 0.881479 0.402214 2.227055
v 0.887944 -0.352162 1.983807
v 0.970626 -0.348154 1.788859
v 1.024639 -0.268246 1.511240
v 1.065061 -0.213981 1.357941
v 1.020602 1.147044 1.387434
v 1.037481 1.137191 0.794600
v 1.054938 0.719273 0.236894
v 0.990557 0.058667 0.173984
v 0.927172 -0.469757 0.443702
v 0.790559 1.303243 0.731470
v 0.313739 1.494730 0.672445
v 0.792223 1.331302 1.444406
v 0.295506 1.536506 1.584496
v 0.818164 0.842276 0.070616
v 0.777520 0.121157 -0.099291
v 0.700640 -0.483485 0.143271
v 0.274246 -0.513376 -0.138325
v 0.311439 0.173727 -0.363836
v 0.325197 0.976258 -0.092766
v 0.184637 -0.788998 0.315260
v 0.501307 -0.762174 0.510415
v 0.746591 -0.816079 0.790251
v 0.393203 -0.899769 0.939962
v 0.373671 -0.849386 0.757821
v 0.280270 0.403897 2.783720
v 0.133114 0.399947 2.809284
v 1.133718 0.072109 1.211623
v 1.151689 0.705960 1.304481
v 1.029212 0.577815 1.797585
v 0.972959 -0.048109 1.642348
v 1.184739 0.719949 0.688341
v 0.768928 -0.063734 2.071585
v 1.124655 0.080047 0.620657
v 0.934107 -0.219835 1.700482
v 0.861030 -0.255865 1.865801
v 0.784221 -0.228439 2.005395
v 1.104117 -0.197226 0.996999
v 1.039659 -0.417352 0.742935
v 1.049522 -0.402249 1.010639
v 1.068994 -0.341889 1.110335
v 0.914747 -0.775708 0.962371
v 0.509103 -0.900282 1.071990
v 0.769335 -0.709660 1.185954
v 0.159320 -0.913732 1.284231
v 0.350451 -0.922634 1.235620
v 0.438547 -0.840311 1.369307
v 0.212830 -0.891323 1.487214
v 0.880643 -0.565270 1.256438
v 0.622047 -0.715221 1.339489
v 0.364977 -0.804962 2.059107
v 0.206331 -0.752940 2.133091
v 0.539252 -0.824054 2.111902
v 0.207100 -0.760225 1.827134
v 0.564161 -0.697305 1.760998
v 0.107087 -0.261052 2.820362
v 0.193471 -0.521601 2.680764
v 0.147660 -0.679609 2.723928
v 0.090032 -0.364967 2.472386
v 0.119332 -0.513855 2.383869
v 0.090566 -0.610653 2.422280
v 0.723934 -0.226327 2.232553
v 0.597922 -0.283988 2.308785
v 0.377570 -0.210958 2.356243
v 0.266484 -0.108066 2.404987
v 0.444624 0.148320 2.354065
v 0.661382 0.110489 2.262232
v 0.746878 -0.041095 2.193252
v 0.262566 0.023151 2.403272
v 0.686911 -0.120091 2.166135
v 0.561878 -0.080406 2.160964
v 0.400131 -0.035772 2.228486
v 0.342536 -0.313244 2.627903
v 0.741997 -0.425901 2.505339
v 0.700223 -0.366921 2.481097
v 0.109902 -0.736093 0.585732
v 0.253060 -0.750871 0.669248
v 0.281295 -0.756302 0.778093
v 0.135453 -0.729243 0.770096
v 0.147912 -0.748879 0.954420
v 0.498561 -1.026452 2.135847
v 0.162890 -0.921665 2.532949
v 0.322022 -0.888810 2.342329
v 0.528335 -0.735690 2.449450
v 0.710974 -0.714468 2.173718
v 0.628821 -0.757874 2.155898
v 0.376917 -0.761487 2.013988
v 0.827823 -0.554330 1.711282
v 0.832249 -0.642918 2.103194
v 0.950243 -0.574730 1.913909
v 0.940481 -0.531471 1.692856
v 0.937132 -0.498653 1.455111
v 0.402108 -0.770276 1.601851
v 0.707856 -0.629739 2.018591
v 0.558951 -0.723214 1.936048
v 0.383975 -0.744283 1.936131
v 0.982075 -0.583294 1.014151
v 0.286405 -1.421620 2.697409
v 0.303319 -1.577253 2.679936
v 0.208242 -1.827839 2.799216
v 0.258747 -1.921052 2.672328
v 0.316216 -1.820612 2.676346
v 0.417914 -1.845399 2.440132
v 0.631698 -1.670625 1.985351
v 0.786802 -1.455788 1.576682
v 0.851108 -1.057542 1.463641
v 0.925833 -0.695838 1.374362
v 0.917976 -0.781327 1.513634
v 0.528091 -1.704547 2.291481
v 0.405628 -1.754575 2.531695
v 0.115992 -1.934688 2.712372
v 0.564982 -1.348541 2.237382
v 0.712598 -0.863868 2.019306
v 0.725061 -0.642691 2.008783
v 0.768117 -0.772011 1.823227
v 0.735563 -0.726942 1.979981
v 0.738048 -0.871415 1.934261
v 0.717374 -1.034518 1.933948
v 0.621383 -1.505755 2.109036
v 0.743999 -1.254445 1.820316
v 0.664611 -1.095525 2.023752
v 0.796647 -0.974367 1.724262
v 0.879037 -0.661093 1.522985
v 0.444939 -1.658282 2.472104
v 0.571203 -1.191916 2.101758
v 0.662905 -0.979957 2.020693
v 0.611866 -1.494461 1.722367
v 0.778745 -0.823807 1.422752
v 0.960822 -0.535771 1.337181
v 0.920402 -0.535709 1.487382
v 0.350283 -1.075264 2.335491
v 0.303929 -1.136522 2.514399
v 0.217981 -1.185950 2.643648
v 0.128127 -1.218811 2.722955
v 0.296398 -1.340737 2.496426
v 0.126744 -1.414554 2.662832
v 0.176262 -1.819068 2.588972
v 0.099348 -1.826659 2.611182
v 0.565888 -1.171482 2.020587
v 0.622359 -1.041243 1.959237
v 0.661358 -0.845917 1.974051
v 0.669132 -1.043009 1.697098
v 0.695144 -0.854807 1.686849
v 0.702792 -0.664175 1.864653
v 0.719844 -0.758794 1.673803
v 0.749653 -0.730392 1.548125
v 0.756671 -0.664853 1.492918
v 0.748433 -0.534335 1.459813
v 0.749851 -0.661892 1.837534
v 0.765263 -0.728221 1.775581
v 0.799233 -0.750035 1.683527
v 0.667069 -0.641816 2.005905
v 0.507367 -1.250994 2.296310
v 0.405050 -1.210986 2.132323
v 0.816932 -0.496323 1.423590
v 0.873792 -0.490291 1.395777
v 0.773286 -0.601859 1.335254
v 0.729248 -0.598469 1.476549
v 0.000000 -0.730530 0.770227
v -0.851906 0.195276 2.495000
v -0.462590 0.264693 2.704509
v -0.184326 0.071713 2.694610
v -0.208176 -0.200312 2.690298
v -0.337760 -0.358711 2.638115
v -0.537566 -0.414826 2.577237
v -0.893924 -0.299309 2.332944
v -0.825397 -0.280273 2.360296
v -0.511535 -0.351289 2.548675
v -0.252429 -0.198465 2.610981
v -0.215068 0.057259 2.631426
v -0.459867 0.216700 2.646274
v -0.793737 0.155674 2.494138
v -0.915934 -0.031574 2.301141
v -0.854252 -0.047931 2.320830
v -0.109446 -0.037283 2.760601
v -0.075731 0.102467 2.763896
v -0.240921 0.264207 2.785258
v -0.457811 0.351563 2.707421
v -0.692318 0.335735 2.580009
v -0.882965 0.275331 2.402437
v -0.934046 0.148788 2.301871
v -0.982074 -0.127366 2.156489
v -1.025999 -0.359520 2.157397
v -0.476046 -0.540978 2.544998
v -1.051939 -0.582339 2.064399
v -0.882105 -0.685737 2.312611
v -0.710575 -0.699340 2.380508
v -0.591937 -0.710811 2.418735
v -0.120994 -0.172226 2.818019
v -0.223047 -0.363037 2.725760
v -0.305121 -0.705863 2.643760
v -0.495953 -0.888178 2.401188
v -0.059506 -0.108583 2.886733
v -0.259713 -0.968022 2.746908
v -0.900113 -0.494063 2.339010
v -0.115748 -0.229495 2.860062
v -0.218867 -0.527481 2.707299
v -0.169532 -0.708210 2.754171
v -0.855551 0.462162 2.402280
v -0.746455 0.701257 2.425781
v -0.812930 1.088996 2.062955
v -0.499695 0.511408 2.641502
v -0.154564 0.541971 2.751377
v -0.367015 0.759169 2.616940
v -0.419922 1.231548 2.250931
v -0.644039 -0.356547 2.433000
v -0.728317 -0.327832 2.375622
v -0.640452 -0.762957 2.291346
v -1.100353 -0.514782 1.866655
v -1.087607 -0.467761 1.586380
v -1.043729 -0.472052 1.445555
v -1.000682 -0.455431 1.176597
v -1.117029 -0.405784 1.597516
v -1.136094 -0.399994 1.730196
v -1.090724 -0.418395 2.019816
v -0.989237 -0.496858 1.315617
v -0.999048 -0.495703 1.446099
v -1.040768 -0.518359 1.705433
v -0.893606 0.276998 2.323905
v -0.922436 0.626899 2.249111
v -0.995165 0.948693 1.911443
v -0.907513 0.045449 2.161252
v -0.963580 -0.312947 2.099016
v -1.076165 -0.377319 1.894850
v -1.084765 -0.371115 1.608305
v -1.068051 -0.356553 1.473744
v -1.081602 -0.292120 1.206427
v -0.881479 0.402214 2.227055
v -0.887944 -0.352162 1.983807
v -0.970626 -0.348154 1.788859
v -0.998020 -0.318852 1.641300
v -1.020602 1.147044 1.387434
v -1.037481 1.137191 0.794601
v -1.054938 0.719273 0.236894
v -0.990557 0.058667 0.173984
v -0.927172 -0.469757 0.443702
v -0.790559 1.303243 0.731470
v -0.313739 1.494730 0.672445
v -0.792223 1.331302 1.444407
v -0.295506 1.536506 1.584497
v -0.818165 0.842276 0.070616
v -0.777520 0.121157 -0.099291
v -0.700640 -0.483485 0.143271
v -0.274246 -0.513376 -0.138325
v -0.311439 0.173728 -0.363836
v -0.325197 0.976259 -0.092766
v -0.184637 -0.788998 0.315260
v -0.501307 -0.762174 0.510415
v -0.746591 -0.816078 0.790251
v -0.393203 -0.899769 0.939962
v -0.373671 -0.849385 0.757821
v -0.280270 0.403897 2.783720
v -0.133114 0.399947 2.809285
v -0.394751 0.419144 2.728877
v -1.133718 0.072109 1.211623
v -1.151689 0.705960 1.304481
v -1.029212 0.577815 1.797585
v -0.972959 -0.048109 1.642348
v -1.184739 0.719949 0.688341
v -0.768928 -0.063734 2.071585
v -1.124655 0.080047 0.620657
v -0.861030 -0.255865 1.865801
v -0.784221 -0.228439 2.005396
v -1.104117 -0.197226 0.996999
v -1.039659 -0.417352 0.742935
v -1.049521 -0.402249 1.010639
v -0.944916 -0.621516 0.687145
v -0.871134 -0.795585 0.839274
v -0.845025 -0.857843 1.014098
v -0.914747 -0.775708 0.962371
v -0.707927 -0.900526 0.962979
v -0.877675 -0.747228 1.065905
v -0.602441 -0.838932 1.176536
v -0.769335 -0.709660 1.185954
v -0.159320 -0.913732 1.284231
v -0.350451 -0.922634 1.235620
v -0.438547 -0.840311 1.369307
v -0.212830 -0.891323 1.487214
v -0.880643 -0.565270 1.256438
v -0.622047 -0.715221 1.339489
v -0.364977 -0.804962 2.059107
v -0.206331 -0.752940 2.133091
v -0.539252 -0.824054 2.111902
v -0.207100 -0.760225 1.827134
v -0.564161 -0.697305 1.760998
v -0.107087 -0.261052 2.820362
v -0.193471 -0.521601 2.680764
v -0.147660 -0.679609 2.723928
v -0.090032 -0.364967 2.472386
v -0.119332 -0.513856 2.383869
v -0.090566 -0.610653 2.422280
v -0.723934 -0.226327 2.232553
v -0.493136 -0.261842 2.324108
v -0.266484 -0.108066 2.404987
v -0.444624 0.148320 2.354065
v -0.661382 0.110489 2.262233
v -0.669984 -0.266072 2.271425
v -0.746878 -0.041095 2.193252
v -0.262566 0.023151 2.403272
v -0.686911 -0.120091 2.166135
v -0.564728 -0.181914 2.204775
v -0.478497 -0.160789 2.221594
v -0.388095 -0.127125 2.261933
v -0.317459 -0.084064 2.310053
v -0.632538 -0.184295 2.190285
v -0.561878 -0.080406 2.160964
v -0.400131 -0.035772 2.228486
v -0.342536 -0.313244 2.627903
v -0.741997 -0.425901 2.505339
v -0.700223 -0.366921 2.481097
v -0.109902 -0.736093 0.585733
v -0.253060 -0.750871 0.669248
v -0.281295 -0.756302 0.778093
v -0.135453 -0.729243 0.770096
v -0.147912 -0.748879 0.954420
v -0.498561 -1.026452 2.135847
v -0.162890 -0.921666 2.532949
v -0.322022 -0.888810 2.342329
v -0.413882 -0.539545 2.576376
v -0.528335 -0.735690 2.449450
v -0.607996 -0.780918 2.265933
v -0.710974 -0.714468 2.173718
v -0.544410 -0.768231 2.019668
v -0.827823 -0.554330 1.711282
v -0.832249 -0.642918 2.103194
v -0.950243 -0.574730 1.913909
v -0.940481 -0.531471 1.692856
v -0.937132 -0.498653 1.455112
v -0.402108 -0.770276 1.601851
v -0.707856 -0.629739 2.018591
v -0.982075 -0.583294 1.014152
v -0.286405 -1.421620 2.697409
v -0.303319 -1.577253 2.679936
v -0.208242 -1.827840 2.799216
v -0.258747 -1.921052 2.672328
v -0.332898 -1.893534 2.593667
v -0.316216 -1.820612 2.676346
v -0.518096 -1.774650 2.239275
v -0.631698 -1.670625 1.985351
v -0.786802 -1.455788 1.576682
v -0.851108 -1.057542 1.463641
v -0.925833 -0.695838 1.374362
v -0.917976 -0.781327 1.513635
v -0.528091 -1.704547 2.291481
v -0.405628 -1.754575 2.531695
v -0.197996 -1.894091 2.767779
v -0.193592 -1.932956 2.699389
v 0.000000 -1.894042 2.785909
v -0.115992 -1.934688 2.712371
v -0.564982 -1.348541 2.237382
v -0.712598 -0.863868 2.019306
v -0.725061 -0.642691 2.008783
v -0.768117 -0.772011 1.823227
v -0.735563 -0.726942 1.979981
v -0.738048 -0.871415 1.934261
v -0.717374 -1.034518 1.933948
v -0.621383 -1.505756 2.109036
v -0.743999 -1.254445 1.820316
v -0.664611 -1.095525 2.023752
v -0.796647 -0.974367 1.724262
v -0.879037 -0.661093 1.522986
v -0.444939 -1.658282 2.472104
v -0.571204 -1.191916 2.101758
v -0.662905 -0.979958 2.020693
v -0.547110 -1.589429 1.966187
v -0.611866 -1.494461 1.722367
v -0.778745 -0.823808 1.422752
v -0.960822 -0.535771 1.337181
v -0.920402 -0.535709 1.487382
v -0.303929 -1.136522 2.514399
v -0.128127 -1.218811 2.722955
v -0.387641 -1.021806 2.118802
v -0.350784 -1.283908 2.340353
v -0.099348 -1.826659 2.611182
v -0.249577 -1.803108 2.549406
v -0.390248 -1.727931 2.311563
v -0.468886 -1.264504 2.095781
v -0.565888 -1.171483 2.020587
v -0.622359 -1.041244 1.959237
v -0.661358 -0.845917 1.974051
v -0.669132 -1.043009 1.697098
v -0.695144 -0.854807 1.686849
v -0.702792 -0.664175 1.864653
v -0.719844 -0.758794 1.673803
v -0.749653 -0.730392 1.548125
v -0.756671 -0.664853 1.492918
v -0.748433 -0.534335 1.459813
v -0.749851 -0.661892 1.837534
v -0.765263 -0.728221 1.775581
v -0.799233 -0.750035 1.683527
v -0.667069 -0.641816 2.005905
v -0.507367 -1.250994 2.296310
v -0.405050 -1.210986 2.132323
v -0.816932 -0.496323 1.423590
v -0.873792 -0.490291 1.395777
v -0.773286 -0.601859 1.335254
v -0.729248 -0.598469 1.476549
v 0.000000 -1.931658 2.718976
v 0.000000 -0.142701 2.937729
v 0.000000 -0.587143 2.568641
v 0.000000 -0.686019 2.837240
v 0.000000 -0.340575 2.595516
v 0.000000 -0.480615 2.522029
v 0.000000 -1.797248 2.851003
v 0.000000 -0.999956 2.864913
v 0.000000 0.775668 2.681586
v 0.000000 -1.433097 2.699288
v 0.000000 -0.722120 2.863753
v 0.000000 1.264254 2.340544
v 0.000000 1.527257 1.812444
v 0.000000 -0.185666 2.896053
v 0.000000 -1.594279 2.826656
v 0.000000 -1.465318 2.827129
v 0.000000 0.543992 2.757037
v 0.992190 -0.503794 1.575526
v -0.992190 -0.503794 1.575526
s 0
usemtl 
f 307 289 269
f 3 12 2
f 29 28 36
f 11 4 10
f 24 23 7
f 184 182 181
f 152 121 154
f 48 133 10
f 113 148 92
f 193 221 180
f 263 253 254
f 30 29 37
f 221 34 166
f 209 194 181
f 46 143 49
f 186 185 181
f 33 244 261
f 37 124 125
f 4 29 5
f 37 126 38
f 231 257 243
f 478 45 82
f 61 98 62
f 40 45 44
f 28 33 36
f 482 321 95
f 33 28 16
f 21 39 20
f 182 184 217
f 95 43 482
f 64 101 63
f 42 43 94
f 32 152 31
f 245 229 230
f 144 227 379
f 474 43 44
f 140 135 134
f 44 477 474
f 70 105 64
f 157 25 26
f 18 94 95
f 39 69 61
f 90 78 91
f 132 133 48
f 158 59 50
f 1 20 2
f 48 141 9
f 130 15 136
f 28 4 16
f 35 7 142
f 67 54 68
f 134 13 12
f 11 133 137
f 137 12 11
f 48 47 132
f 35 26 25
f 46 49 131
f 25 24 35
f 132 139 140
f 47 48 9
f 65 56 50
f 162 153 154
f 35 24 7
f 313 86 312
f 102 76 100
f 63 23 64
f 481 167 166
f 31 38 34
f 26 153 157
f 68 53 109
f 482 43 474
f 388 259 387
f 38 469 476
f 66 71 65
f 165 117 112
f 54 55 52
f 155 119 120
f 5 141 4
f 203 171 169
f 29 36 37
f 54 52 53
f 66 50 51
f 483 51 59
f 14 63 22
f 56 25 50
f 40 20 39
f 82 41 81
f 105 104 101
f 70 56 65
f 139 136 135
f 81 80 82
f 8 142 7
f 103 104 71
f 15 7 14
f 66 103 71
f 13 2 12
f 55 58 52
f 57 58 160
f 267 268 288
f 64 24 56
f 74 79 81
f 99 103 72
f 23 24 64
f 386 385 438
f 116 161 122
f 54 67 55
f 117 57 160
f 315 86 89
f 73 72 67
f 75 97 100
f 13 14 1
f 18 3 2
f 471 127 470
f 382 379 227
f 266 259 262
f 112 115 111
f 85 89 86
f 79 76 83
f 84 76 77
f 93 145 90
f 266 469 356
f 77 85 84
f 91 93 90
f 88 313 314
f 117 160 156
f 91 107 110
f 417 442 466
f 246 247 229
f 291 328 331
f 315 144 379
f 96 106 102
f 244 230 243
f 94 19 42
f 106 107 102
f 89 145 144
f 475 204 206
f 93 92 146
f 92 111 114
f 482 271 321
f 95 94 43
f 30 152 5
f 21 1 22
f 159 156 160
f 86 84 85
f 108 109 53
f 159 59 158
f 60 21 22
f 158 50 25
f 73 96 99
f 83 87 88
f 82 306 308
f 230 239 238
f 79 88 80
f 159 158 156
f 101 98 69
f 71 104 70
f 65 71 70
f 108 106 109
f 252 233 255
f 131 49 130
f 165 110 107
f 68 96 73
f 102 78 77
f 180 192 187
f 364 375 363
f 100 96 102
f 104 103 99
f 73 67 68
f 115 116 114
f 108 107 106
f 72 73 99
f 92 93 91
f 98 96 97
f 22 63 60
f 385 202 439
f 94 18 19
f 431 418 460
f 348 341 345
f 92 91 111
f 118 115 112
f 165 112 110
f 155 120 164
f 107 108 165
f 129 471 468
f 163 123 162
f 120 151 150
f 163 164 123
f 108 53 165
f 130 49 8
f 118 156 123
f 343 116 346
f 150 151 200
f 397 346 352
f 198 216 226
f 148 147 146
f 116 115 161
f 164 161 123
f 395 392 394
f 116 352 346
f 5 6 141
f 122 350 352
f 31 37 38
f 158 162 156
f 155 164 163
f 171 178 170
f 26 35 142
f 470 124 479
f 125 127 128
f 255 377 254
f 31 152 30
f 194 208 207
f 47 131 132
f 149 32 221
f 126 468 469
f 140 133 132
f 203 200 199
f 7 23 14
f 151 199 200
f 47 46 131
f 143 46 9
f 16 4 3
f 55 72 66
f 15 135 136
f 22 1 14
f 114 113 92
f 297 298 292
f 46 47 9
f 91 112 111
f 81 62 74
f 69 63 101
f 115 114 111
f 221 167 180
f 365 275 274
f 147 227 144
f 19 20 42
f 33 467 36
f 150 201 202
f 208 211 210
f 140 134 137
f 204 203 205
f 44 42 40
f 100 76 75
f 58 57 52
f 2 19 18
f 147 145 146
f 473 38 476
f 101 104 99
f 112 117 118
f 396 347 392
f 162 123 156
f 439 475 442
f 204 202 201
f 351 391 349
f 161 118 123
f 200 203 201
f 398 392 353
f 386 350 385
f 197 225 216
f 199 149 222
f 5 29 30
f 233 378 377
f 120 385 350
f 51 55 66
f 483 59 159
f 178 167 170
f 160 483 159
f 356 265 266
f 31 34 32
f 212 182 217
f 149 121 32
f 115 118 161
f 483 160 58
f 68 109 106
f 189 207 193
f 162 154 163
f 162 157 153
f 167 178 192
f 472 416 168
f 222 221 193
f 121 163 154
f 189 187 188
f 208 195 207
f 171 170 169
f 186 188 190
f 211 209 213
f 241 290 250
f 205 169 179
f 184 183 217
f 151 119 199
f 185 186 190
f 456 422 420
f 192 177 187
f 425 427 426
f 172 188 187
f 188 186 189
f 218 183 219
f 218 217 183
f 169 170 168
f 174 188 173
f 448 451 459
f 176 190 174
f 39 61 40
f 209 182 220
f 196 176 174
f 175 215 225
f 190 219 183
f 222 193 207
f 198 175 197
f 189 193 180
f 214 176 191
f 119 121 149
f 168 170 167
f 169 205 203
f 222 172 171
f 181 185 184
f 195 173 172
f 382 227 383
f 185 190 183
f 206 205 179
f 168 480 472
f 458 457 452
f 210 196 174
f 168 179 169
f 172 177 171
f 232 231 376
f 465 454 464
f 194 186 181
f 218 219 213
f 209 208 194
f 218 209 212
f 203 199 222
f 39 21 60
f 191 176 175
f 226 216 225
f 269 308 307
f 177 178 171
f 466 179 416
f 226 225 215
f 442 206 466
f 437 462 463
f 191 215 214
f 184 185 183
f 311 315 316
f 226 215 191
f 207 195 172
f 175 225 197
f 210 211 196
f 223 198 224
f 214 215 196
f 178 177 192
f 147 148 227
f 177 172 187
f 198 197 224
f 461 444 445
f 226 191 198
f 223 216 198
f 220 212 209
f 236 376 237
f 217 218 212
f 197 223 224
f 3 17 16
f 17 18 95
f 214 211 213
f 195 208 210
f 346 344 343
f 377 235 234
f 213 219 214
f 482 474 271
f 380 315 379
f 284 279 280
f 251 263 234
f 206 204 205
f 413 412 406
f 146 145 93
f 61 41 40
f 311 303 310
f 444 433 445
f 252 232 233
f 70 104 105
f 391 351 389
f 232 376 233
f 381 383 318
f 274 275 378
f 484 396 395
f 232 387 258
f 231 238 237
f 408 434 407
f 329 304 333
f 266 473 476
f 383 343 318
f 253 393 254
f 262 460 400
f 354 265 355
f 265 387 259
f 308 478 82
f 251 291 283
f 481 401 480
f 258 231 232
f 273 268 272
f 270 272 268
f 388 260 259
f 246 270 247
f 318 319 381
f 257 264 261
f 351 440 384
f 478 273 477
f 325 288 289
f 322 320 270
f 272 477 273
f 154 27 152
f 296 267 288
f 381 319 380
f 237 376 231
f 320 245 321
f 301 324 300
f 236 362 361
f 287 248 267
f 263 377 234
f 246 229 245
f 370 361 371
f 241 250 234
f 360 242 235
f 395 396 392
f 275 235 378
f 368 366 360
f 337 341 340
f 284 285 279
f 238 362 237
f 251 234 250
f 249 241 228
f 240 363 239
f 364 242 366
f 239 367 238
f 331 297 291
f 236 274 378
f 113 114 116
f 229 247 228
f 235 275 360
f 365 361 369
f 251 253 263
f 258 265 264
f 302 329 327
f 59 51 50
f 348 397 353
f 423 424 419
f 248 249 228
f 372 367 375
f 390 276 255
f 291 250 290
f 388 252 256
f 202 204 475
f 372 371 362
f 286 484 395
f 284 347 396
f 281 278 282
f 277 292 282
f 479 264 354
f 389 260 388
f 389 256 276
f 281 293 294
f 424 428 426
f 460 461 431
f 286 282 278
f 276 256 255
f 334 332 333
f 241 240 228
f 279 281 294
f 325 328 296
f 247 268 267
f 274 236 361
f 297 283 291
f 242 234 235
f 294 299 326
f 290 296 328
f 229 240 239
f 253 283 277
f 298 282 292
f 396 285 284
f 249 248 287
f 395 394 286
f 335 333 304
f 298 299 293
f 291 251 250
f 307 306 305
f 166 473 481
f 331 330 297
f 259 266 265
f 294 293 299
f 305 300 307
f 310 302 309
f 475 439 202
f 313 309 314
f 299 330 326
f 248 228 247
f 316 319 317
f 317 335 304
f 332 323 329
f 473 400 481
f 330 328 326
f 317 336 335
f 314 305 306
f 319 316 380
f 206 179 466
f 30 37 31
f 380 382 381
f 295 279 294
f 321 271 320
f 390 389 276
f 261 264 467
f 322 245 320
f 365 360 275
f 332 295 323
f 337 338 336
f 272 271 474
f 278 281 279
f 392 348 353
f 334 399 280
f 341 342 340
f 310 312 311
f 332 329 333
f 366 374 364
f 330 298 297
f 304 316 317
f 339 337 336
f 302 327 301
f 340 338 337
f 317 318 339
f 323 327 329
f 336 338 335
f 373 374 368
f 331 328 330
f 317 339 336
f 295 334 280
f 439 438 385
f 318 317 319
f 299 298 330
f 323 325 324
f 345 341 344
f 340 399 338
f 253 277 394
f 357 471 470
f 341 318 344
f 471 359 468
f 259 260 262
f 334 333 399
f 399 335 338
f 453 411 458
f 446 447 432
f 4 141 10
f 173 210 174
f 397 345 346
f 345 344 346
f 399 340 342
f 391 398 353
f 415 417 414
f 352 391 353
f 279 285 278
f 401 460 418
f 122 164 120
f 357 355 358
f 384 460 260
f 414 405 403
f 470 354 357
f 359 355 356
f 448 457 451
f 356 468 359
f 342 348 347
f 370 371 375
f 373 365 369
f 360 365 373
f 370 369 361
f 322 270 246
f 373 368 360
f 363 375 367
f 383 227 148
f 271 270 320
f 376 236 233
f 256 252 255
f 286 394 277
f 293 281 282
f 382 383 381
f 249 287 290
f 375 371 372
f 248 247 267
f 443 439 442
f 251 283 253
f 243 230 231
f 369 370 374
f 370 375 374
f 372 362 367
f 146 92 148
f 142 27 26
f 397 352 353
f 49 143 8
f 257 261 243
f 56 24 25
f 444 443 404
f 373 369 374
f 119 151 120
f 391 389 398
f 6 152 27
f 419 432 448
f 19 2 20
f 17 321 244
f 441 386 438
f 321 245 244
f 345 397 348
f 252 387 232
f 362 371 361
f 257 258 264
f 278 484 286
f 411 409 428
f 243 261 244
f 350 349 391
f 403 415 414
f 323 294 326
f 393 398 390
f 347 399 342
f 324 289 300
f 263 254 377
f 351 384 260
f 143 6 142
f 396 484 285
f 418 430 401
f 426 407 425
f 386 349 350
f 152 32 121
f 449 408 409
f 466 416 417
f 442 417 415
f 427 424 426
f 410 411 429
f 442 415 443
f 412 430 425
f 426 409 408
f 407 412 425
f 450 449 435
f 465 464 455
f 414 417 416
f 446 434 447
f 447 448 432
f 436 464 410
f 420 422 419
f 421 423 422
f 384 440 461
f 411 435 409
f 428 458 411
f 448 420 419
f 420 451 456
f 410 437 436
f 457 421 456
f 440 349 386
f 454 410 464
f 445 446 431
f 449 447 434
f 418 431 427
f 405 402 401
f 423 421 428
f 413 444 404
f 429 454 465
f 433 407 434
f 450 452 448
f 456 421 422
f 402 416 472
f 480 402 472
f 443 441 438
f 404 405 413
f 457 456 451
f 446 445 433
f 413 405 401
f 446 427 431
f 422 423 419
f 432 424 427
f 461 440 441
f 445 431 461
f 80 314 306
f 16 17 33
f 461 441 444
f 423 428 424
f 467 33 261
f 406 412 407
f 443 403 404
f 458 452 453
f 413 401 430
f 454 453 435
f 457 458 421
f 450 453 452
f 413 430 412
f 436 437 463
f 465 437 429
f 436 462 455
f 454 429 453
f 455 464 436
f 407 433 406
f 403 443 415
f 405 404 403
f 447 450 448
f 465 455 437
f 437 455 462
f 302 305 309
f 269 288 268
f 390 254 393
f 119 155 121
f 398 394 392
f 409 435 449
f 1 21 20
f 138 130 136
f 53 52 57
f 36 479 124
f 344 318 343
f 141 6 9
f 62 97 74
f 113 383 148
f 131 138 139
f 129 125 128
f 307 300 289
f 3 11 12
f 11 3 4
f 221 32 34
f 33 17 244
f 37 36 124
f 4 28 29
f 37 125 126
f 478 477 45
f 61 69 98
f 40 41 45
f 64 105 101
f 42 44 43
f 140 139 135
f 44 45 477
f 157 158 25
f 39 60 69
f 90 85 78
f 48 10 141
f 130 8 15
f 134 135 13
f 11 10 133
f 137 134 12
f 132 131 139
f 313 87 86
f 102 77 76
f 481 480 167
f 26 27 153
f 68 54 53
f 38 126 469
f 165 53 117
f 203 222 171
f 66 65 50
f 483 58 51
f 14 23 63
f 40 42 20
f 82 45 41
f 70 64 56
f 139 138 136
f 81 79 80
f 8 143 142
f 15 8 7
f 66 72 103
f 13 1 2
f 55 51 58
f 74 75 79
f 117 53 57
f 315 312 86
f 75 74 97
f 13 15 14
f 471 128 127
f 85 90 89
f 79 75 76
f 84 83 76
f 266 476 469
f 77 78 85
f 88 87 313
f 91 78 107
f 291 290 328
f 315 89 144
f 244 245 230
f 89 90 145
f 86 87 84
f 83 84 87
f 82 80 306
f 230 229 239
f 79 83 88
f 101 99 98
f 68 106 96
f 102 107 78
f 180 167 192
f 364 374 375
f 100 97 96
f 98 99 96
f 385 150 202
f 348 342 341
f 129 128 471
f 118 117 156
f 343 113 116
f 164 122 161
f 116 122 352
f 122 120 350
f 158 157 162
f 470 127 124
f 125 124 127
f 255 233 377
f 126 129 468
f 140 137 133
f 55 67 72
f 15 13 135
f 91 110 112
f 81 41 62
f 69 60 63
f 221 166 167
f 150 200 201
f 208 209 211
f 204 201 203
f 147 144 145
f 473 34 38
f 199 119 149
f 233 236 378
f 120 150 385
f 356 355 265
f 212 220 182
f 189 194 207
f 222 149 221
f 121 155 163
f 189 180 187
f 241 249 290
f 425 418 427
f 172 173 188
f 174 190 188
f 209 181 182
f 196 175 176
f 175 196 215
f 190 176 219
f 198 191 175
f 214 219 176
f 222 207 172
f 168 167 480
f 168 416 179
f 194 189 186
f 218 213 209
f 269 273 308
f 442 475 206
f 311 312 315
f 197 216 223
f 3 18 17
f 214 196 211
f 377 378 235
f 380 316 315
f 61 62 41
f 311 304 303
f 444 406 433
f 231 230 238
f 329 303 304
f 266 262 473
f 253 394 393
f 262 260 460
f 354 264 265
f 265 258 387
f 481 400 401
f 258 257 231
f 273 269 268
f 351 349 440
f 478 308 273
f 325 296 288
f 272 474 477
f 154 153 27
f 296 287 267
f 301 327 324
f 236 237 362
f 360 366 242
f 337 339 341
f 238 367 362
f 240 364 363
f 364 240 242
f 239 363 367
f 365 274 361
f 302 303 329
f 388 387 252
f 284 280 347
f 277 283 292
f 479 467 264
f 389 351 260
f 389 388 256
f 460 384 461
f 286 277 282
f 241 242 240
f 325 326 328
f 247 270 268
f 297 292 283
f 242 241 234
f 290 287 296
f 229 228 240
f 298 293 282
f 307 308 306
f 166 34 473
f 305 301 300
f 310 303 302
f 313 310 309
f 473 262 400
f 314 309 305
f 380 379 382
f 295 280 279
f 390 398 389
f 322 246 245
f 392 347 348
f 310 313 312
f 366 368 374
f 304 311 316
f 323 324 327
f 295 332 334
f 323 326 325
f 357 358 471
f 341 339 318
f 471 358 359
f 399 333 335
f 453 429 411
f 173 195 210
f 352 350 391
f 401 400 460
f 357 354 355
f 414 402 405
f 470 479 354
f 359 358 355
f 448 452 457
f 356 469 468
f 271 272 270
f 443 438 439
f 142 6 27
f 444 441 443
f 6 5 152
f 17 95 321
f 441 440 386
f 278 285 484
f 323 295 294
f 347 280 399
f 324 325 289
f 143 9 6
f 418 425 430
f 426 408 407
f 449 434 408
f 426 428 409
f 446 433 434
f 411 410 435
f 428 421 458
f 448 459 420
f 420 459 451
f 410 429 437
f 454 435 410
f 413 406 444
f 402 414 416
f 480 401 402
f 446 432 427
f 432 419 424
f 80 88 314
f 450 435 453
f 436 463 462
f 447 449 450
f 302 301 305
f 269 289 288
f 390 255 254
f 398 393 394
f 36 467 479
f 62 98 97
f 113 343 383
f 131 130 138
f 129 126 125
